<svg width="20" height="20" viewBox="0 0 20 20" fill="none" xmlns="http://www.w3.org/2000/svg">
<path d="M18.3333 4.83339C17.7069 5.10513 17.0445 5.28477 16.3667 5.36672C17.0818 4.93949 17.6177 4.26737 17.875 3.47505C17.203 3.87511 16.4673 4.15697 15.7 4.30839C15.1871 3.7522 14.5041 3.38197 13.7582 3.25576C13.0122 3.12956 12.2455 3.25452 11.5782 3.61104C10.9109 3.96757 10.3808 4.5355 10.071 5.22575C9.76129 5.916 9.68941 6.68954 9.86667 7.42505C8.50786 7.35632 7.1787 7.00251 5.96555 6.3866C4.75239 5.77069 3.68237 4.90646 2.825 3.85005C2.52428 4.37519 2.36627 4.9699 2.36667 5.57505C2.3656 6.13704 2.50352 6.69057 2.76813 7.18636C3.03275 7.68215 3.41585 8.10481 3.88333 8.41672C3.33998 8.40194 2.80824 8.25613 2.33333 7.99172V8.03339C2.33741 8.8208 2.61333 9.58263 3.11443 10.19C3.61553 10.7974 4.31105 11.2131 5.08333 11.3667C4.78605 11.4572 4.4774 11.5049 4.16667 11.5084C3.95158 11.5059 3.73702 11.4864 3.525 11.4501C3.74493 12.1274 4.17052 12.7193 4.74256 13.1435C5.31461 13.5677 6.00465 13.803 6.71667 13.8167C5.51434 14.7628 4.0299 15.2791 2.5 15.2834C2.22145 15.2843 1.94311 15.2676 1.66667 15.2334C3.22869 16.2419 5.04901 16.7773 6.90833 16.7751C8.19141 16.7884 9.46428 16.5459 10.6526 16.0618C11.8409 15.5777 12.9209 14.8616 13.8293 13.9555C14.7378 13.0493 15.4566 11.9712 15.9438 10.7841C16.431 9.59707 16.6767 8.32483 16.6667 7.04172C16.6667 6.90005 16.6667 6.75005 16.6667 6.60005C17.3206 6.11239 17.8846 5.51457 18.3333 4.83339Z" fill="#556987"/>
</svg>
